inDegrees=no
num_controls=7
num_derivatives=13
num_iterations=159
num_multipliers=7
num_parameters=0
num_slacks=7
num_states=26
objective=0.477742
objective_accelerations=0.043109
objective_balance=0.003601
objective_effort=0.039643
objective_height=0.385678
objective_ligament=0.005711
solver_duration=2044.310895
status=Solve_Succeeded
success=true
DataType=double
version=3
OpenSimVersion=4.5
endheader
time	/jointset/ground_pelvis/pelvis_tilt/value	/jointset/ground_pelvis/pelvis_tx/value	/jointset/ground_pelvis/pelvis_ty/value	/jointset/hip_l/hip_flexion_l/value	/jointset/hip_l/hip_adduction_l/value	/jointset/hip_l/hip_rotation_l/value	/jointset/back/lumbar_extension/value	/jointset/patellofemoral_l/patellar_flexion_l/value	/jointset/knee_l/knee_flexion_l/value	/jointset/knee_l/knee_adduction_l/value	/jointset/knee_l/knee_rotation_l/value	/jointset/ankle_l/ankle_angle_l/value	/jointset/subtalar_l/subtalar_angle_l/value	/jointset/ground_pelvis/pelvis_tilt/speed	/jointset/ground_pelvis/pelvis_tx/speed	/jointset/ground_pelvis/pelvis_ty/speed	/jointset/hip_l/hip_flexion_l/speed	/jointset/hip_l/hip_adduction_l/speed	/jointset/hip_l/hip_rotation_l/speed	/jointset/back/lumbar_extension/speed	/jointset/patellofemoral_l/patellar_flexion_l/speed	/jointset/knee_l/knee_flexion_l/speed	/jointset/knee_l/knee_adduction_l/speed	/jointset/knee_l/knee_rotation_l/speed	/jointset/ankle_l/ankle_angle_l/speed	/jointset/subtalar_l/subtalar_angle_l/speed	/forceset/tau_hip_flexion_l	/forceset/tau_hip_adduction_l	/forceset/tau_hip_rotation_l	/forceset/tau_knee_flexion_l	/forceset/tau_ankle_angle_l	/forceset/tau_subtalar_angle_l	/forceset/tau_lumbar_extension	lambda_cid13_p0	lambda_cid13_p1	lambda_cid13_p2	lambda_cid13_p3	lambda_cid13_p4	lambda_cid13_p5	lambda_cid14_p0	/jointset/ground_pelvis/pelvis_tilt/accel	/jointset/ground_pelvis/pelvis_tx/accel	/jointset/ground_pelvis/pelvis_ty/accel	/jointset/hip_l/hip_flexion_l/accel	/jointset/hip_l/hip_adduction_l/accel	/jointset/hip_l/hip_rotation_l/accel	/jointset/back/lumbar_extension/accel	/jointset/patellofemoral_l/patellar_flexion_l/accel	/jointset/knee_l/knee_flexion_l/accel	/jointset/knee_l/knee_adduction_l/accel	/jointset/knee_l/knee_rotation_l/accel	/jointset/ankle_l/ankle_angle_l/accel	/jointset/subtalar_l/subtalar_angle_l/accel	gamma_cid13_p0	gamma_cid13_p1	gamma_cid13_p2	gamma_cid13_p3	gamma_cid13_p4	gamma_cid13_p5	gamma_cid14_p0
0	-0.03681629340717986	0.05667461620804715	0.9203417001802728	0.3085816938045678	-0.2956382069620798	-0.3015597077731031	-0.3879492264334186	0.2499269421184904	0.2499269421184919	-0.1745329133660417	-0.1744860305098274	-0.0008036623358878681	0.0004393425318977056	0	0	0	0	0	0	0	0	0	0	0	0	0	0.06916723397752501	-0.05003634955093653	-0.01969687067105342	-0.2420974059848969	0.1891067858772886	-0.01087836135075615	0.005795341002086966	17.3716824297092	-0.8689499138066618	2.598958091962403	8.637464903319039	-623.9378053237236	-76.60193091836415	-23.19533317665366	-0.9244849445838459	-1.961624918278019	-0.896930913154587	8.987888234311384	-0.8374481234634471	3.270205828854298	-7.129928643473384	9.200245788437131	9.200245788436099	1.218630427962435	-0.06869798190921206	1.64637808453266	-0.3385917121655945	-3.959366610086115e-09	1.482600106256701e-07	5.464833435876479e-08	-2.369849693128658e-09	8.962666980847461e-08	4.93181023910982e-09	4.539185069029833e-09
0.01	-0.03685887143267602	0.05657787183009659	0.9202978139775281	0.3090199401136408	-0.2956803075253294	-0.3013955456331561	-0.388304908841626	0.2503779817711476	0.2503779817711494	-0.1744756653680368	-0.1744861918143759	-0.0007234503659294441	0.0004214397786652448	-0.008472395154763019	-0.01923328417539621	-0.008746063713550063	0.08722098856419087	-0.008386388731784543	0.0326817918956483	-0.07070989744032651	0.08981288675145453	0.08981288675145084	0.01137742289015827	-3.664583164755751e-05	0.0160079345396941	-0.00355624812674373	0.06437415704904889	-0.05556280993123559	-0.0190963143051281	-0.2384863342264448	0.1834671264488442	-0.002661935702650661	0.01040736471096862	15.76845274857912	-4.117483045049581	3.072148306138826	8.280254043156368	-626.3393907856045	-83.01242826407247	-23.20053806179647	-0.8021426886191534	-1.886841928829877	-0.8587496498138919	8.524957357103254	-0.8342075977253011	3.244569802707115	-6.977532664201468	8.812552643610783	8.812552643611031	1.086502752939997	0.02819866678947135	1.572835368926439	-0.3605258403100129	-3.320678268848262e-08	1.429211155648466e-07	1.338972771756882e-07	2.280117333758049e-08	-1.493425093788254e-08	-4.48845788089936e-08	-5.645056227784168e-09
0.02	-0.03698487858725787	0.05629226225806029	0.9201674060277764	0.3103175469462824	-0.2958052666458353	-0.3009090847876958	-0.3893548926982145	0.2517152987963437	0.251715298796344	-0.1743068022344512	-0.1744868502671219	-0.000484192204526378	0.0003686976486890988	-0.01668582581739971	-0.0377730388171495	-0.01730434940144558	0.1718721047135934	-0.01657171145114466	0.06445974110277822	-0.1388602896762262	0.1772554745073559	0.1772554745073599	0.02232302711621637	-9.942964001488809e-05	0.03180923828893493	-0.006967875348737032	0.05958108012057686	-0.06108927031152858	-0.01849575793922015	-0.2348752624679845	0.177827467020404	0.005554489945462798	0.0150193884198479	14.23626314656741	-7.37698104542392	3.545403182495404	7.81100872352211	-627.6804612091379	-89.3345527850191	-23.21586429990816	-0.8726920461586231	-1.822919011549396	-0.8593753080236772	8.473913751353708	-0.7972349209785649	3.089437291150624	-6.618027602588043	8.726185989326501	8.726185989327739	1.132266695142391	-0.07392557725316014	1.605051926442046	-0.3096675312154986	-6.245419876687913e-08	1.375822205040231e-07	2.131462199926115e-07	4.797219636828964e-08	-1.194951716842397e-07	-9.4700967857097e-08	-1.582929752459817e-08
0.03	-0.03719178624128429	0.05582481305982476	0.9199521761974198	0.31244884801286	-0.296010782932329	-0.3001099428584784	-0.3910728486791743	0.2539151326711723	0.2539151326711701	-0.1740303256730901	-0.1744886334279117	-8.791675192091545e-05	0.0002828722223409142	-0.02463705833060031	-0.05559217115606477	-0.02572419290500097	0.2539339487360517	-0.02447410023708926	0.09520982759520732	-0.2042554671720085	0.2622997223752276	0.2622997223752325	0.03291569014273981	-0.0002499420128986169	0.04741503603342637	-0.0101480155647234	0.05319567838894876	-0.05574875810888719	-0.0177510722152142	-0.2298501815148844	0.1735489502152667	0.00432968123622473	0.02077954457099244	12.76453156029908	-6.649662222960973	3.500616112683243	7.753640001403678	-629.2589148323744	-86.9900392037717	-23.24069249858268	-0.7475487695999786	-1.742706197739813	-0.8306996282943775	8.004185806204278	-0.7781721913538673	3.043945434887547	-6.428946921582118	8.331810680100697	8.331810680099977	1.014321110535198	0.01550770356687685	1.533721180941877	-0.3148542052637198	-8.402853807124083e-08	1.216220936061083e-07	2.711061784475989e-07	6.704391031129357e-08	-2.06158765427506e-07	-1.333689455543039e-07	-2.39396918323578e-08
0.04	-0.03747644820358113	0.05518291336766477	0.9196532657806732	0.3153871407353662	-0.2962936093734724	-0.2990080698430171	-0.3934304932547932	0.2569530623235918	0.2569530623235928	-0.1736496114806393	-0.1744916973582614	0.0004634921746273398	0.0001667120061381674	-0.0322366874717739	-0.07266313760204461	-0.03404046667947158	0.3332704358990075	-0.03203374238109172	0.1250059583515758	-0.2667980086081481	0.3448746300264269	0.344874630026423	0.04317055333437778	-0.0003555835508671209	0.06283593307748547	-0.01303483331965034	0.04681027665732268	-0.05040824590624723	-0.01700638649116943	-0.2248251005617902	0.1692704334101278	0.003104872526984089	0.02653970072213995	11.35865960794322	-5.93118949487372	3.454171936323013	7.584857822084764	-629.8639588292589	-84.5609171373068	-23.27419395278485	-0.8023713717532618	-1.673285832962275	-0.8386613622067192	7.928842379453199	-0.7286855925901371	2.898646143938497	-6.047500390659523	8.232317945992005	8.232317945991335	1.064706728165288	-0.06495141027010773	1.568071786355617	-0.2510030390036007	-1.054446696070657e-07	1.054429722373257e-07	3.286271887714123e-07	8.598986530403556e-08	-2.924533421191621e-07	-1.71807059099946e-07	-3.200732640838434e-08
